
<svg width="158" height="79" viewBox="0 0 158 79" fill="none" xmlns="http://www.w3.org/2000/svg">
    <g clip-path="url(#clip0_2013_179)">
        <path d="M7.06764 62.572C7.06764 62.572 5.21712 62.6463 4.92728 62.6463C4.70061 62.6463 3.49666 62.572 3.3183 62.572C3.02474 62.572 2.24812 62.572 2.24812 63.0774C2.24812 63.5827 2.70517 63.605 2.969 63.6162C3.58956 63.6682 3.61928 63.8354 3.61928 64.103C3.61928 64.1773 3.58956 64.3891 3.51896 64.6232L1.89139 71.1334C1.56439 72.46 1.39718 72.5306 0.557385 72.6941C0.405033 72.7276 0 72.813 0 73.2106C0 73.6788 0.549953 73.6788 0.813782 73.6788L1.21138 73.6565C1.59412 73.6342 2.17008 73.6008 2.56769 73.6008C3.03217 73.6008 3.73819 73.6305 4.26957 73.6528L4.96816 73.6751C6.27244 73.6751 7.07879 73.5711 7.52841 73.4856C10.3859 72.8911 12.6229 69.9035 12.6229 66.6744C12.6229 65.5596 12.1956 64.4894 11.445 63.7425C11.1254 63.4229 10.2745 62.5646 7.06764 62.5646M10.3153 66.3325C10.3153 68.2202 9.58702 70.1524 8.40908 71.3861C7.68819 72.1776 6.60687 72.5418 5.0016 72.5418C3.93514 72.5418 3.93514 72.2854 3.93514 72.0773C3.93514 71.9472 3.99831 71.5199 4.14694 70.9699C4.14694 70.9699 5.90828 63.8317 5.92686 63.7722C6.02347 63.7351 6.592 63.6348 7.36491 63.6348C9.35292 63.6348 10.319 64.5154 10.319 66.3325" fill="#BA9765"/>
        <path d="M21.5559 70.8213C21.266 70.8213 21.1657 71.0777 21.0654 71.3304C20.8684 71.8915 20.5675 72.2816 20.2665 72.2816C20.181 72.2816 20.0918 72.2482 20.0101 72.185C20.0101 72.0252 20.0881 71.5533 20.2033 71.0443L20.809 68.6809C20.8387 68.5509 20.939 68.2202 21.0394 67.8672C21.3106 66.9605 21.3627 66.7598 21.3627 66.6632L21.2363 66.2879H20.9688C20.8462 66.2879 20.5229 66.3325 20.2144 66.3808C19.9655 66.418 19.7314 66.4551 19.6311 66.4551C19.3226 66.4737 19.1889 66.5889 19.1108 66.8379C18.7652 66.4551 18.3714 66.2916 17.8511 66.2916C15.7888 66.2916 13.6893 68.7441 13.6893 71.1483C13.6893 72.7721 14.6778 73.8646 16.1493 73.8646C17.1154 73.8646 17.6096 73.5079 18.1744 72.7573C18.3231 73.2775 18.6612 73.8646 19.4936 73.8646C20.9242 73.8646 21.9349 71.6611 21.9349 71.2226L21.8086 70.8287H21.541L21.5559 70.8213ZM16.4911 72.761C16.2756 72.761 15.6959 72.761 15.6959 71.5831C15.6959 70.5538 16.7698 67.2578 18.0258 67.2578H18.0629C18.5089 67.2578 18.8581 67.6702 18.8581 68.1867C18.8136 68.9002 18.1856 72.761 16.4911 72.761Z" fill="#BA9765"/>
        <path d="M28.4527 66.2693C28.003 66.2693 27.676 66.6038 27.676 67.0683C27.676 67.3693 27.7912 67.5996 27.9287 67.8709C28.1963 68.3763 28.2631 68.6104 28.2631 69.0637C28.2631 70.7098 26.8177 72.7276 25.6397 72.7276C25.2012 72.7276 24.8817 72.356 24.8817 71.8432C24.8817 71.6463 24.9523 71.1669 25.2198 70.1153C25.5282 68.9151 25.6471 68.2945 25.6471 67.9081C25.6471 66.8342 25.205 66.2879 24.3392 66.2879C22.968 66.2879 21.9498 68.2016 21.9498 68.785L22.1133 69.1417H22.3809C22.6856 69.1417 22.7971 68.8519 22.8825 68.6327C23.1352 68.0381 23.4733 67.6888 23.6889 67.6888L23.7632 67.7074C23.7632 67.9898 23.6852 68.4283 23.425 69.3944C23.1055 70.5798 23.0126 71.0814 23.0126 71.6388C23.0126 72.9245 23.8598 73.8275 25.0712 73.8275C27.3565 73.8275 29.4336 71.0517 29.4336 68.001C29.4336 66.4403 28.7499 66.2731 28.4527 66.2731" fill="#BA9765"/>
        <path d="M35.5611 67.6108C35.5611 66.8416 35.0112 66.2842 34.2494 66.2842C32.4323 66.2842 29.9055 68.8259 29.9055 71.3267C29.9055 72.8427 30.7862 73.8237 32.1499 73.8237C34.0376 73.8237 35.4348 71.8172 35.4348 71.2895C35.4348 71.0703 35.2415 70.877 35.0223 70.877L34.6321 71.0777L34.5541 71.2077C34.1416 71.9026 33.3167 72.4674 32.7147 72.4674C32.5252 72.4674 31.9567 72.4674 31.9567 71.3638C31.9567 71.1371 31.9753 70.9476 31.8415 70.7618C32.9526 70.498 33.3427 70.3568 33.915 70.0149C34.9591 69.3647 35.5611 68.4877 35.5611 67.6108ZM32.2131 69.8329C32.6553 68.209 33.3093 67.2206 33.9558 67.2206C34.0673 67.2206 34.2011 67.3841 34.2011 67.5736C34.2011 68.0084 33.8184 68.7441 33.3502 69.2123C33.0046 69.5393 32.6962 69.7139 32.2094 69.8329" fill="#BA9765"/>
        <path d="M40.2618 66.4886L40.6631 65.2177C40.6631 65.084 40.6074 64.7681 40.05 64.7681L39.6747 64.7904L39.6933 65.0543L39.1396 64.8053C38.5971 64.8313 38.4782 65.058 38.4001 65.567L38.441 66.4849H37.5269C37.2668 66.4849 36.9844 66.6558 36.9844 67.1352L37.1293 67.5848H37.9617L37.1925 70.4312C37.003 71.1186 36.8915 71.7169 36.8915 72.0773C36.8915 73.1549 37.5901 73.8238 38.7123 73.8238C40.4513 73.8238 41.7407 72.1813 41.7407 71.7466L41.5958 71.3341H41.3283C41.0942 71.3341 40.9604 71.5199 40.8378 71.702C40.429 72.2705 39.9088 72.5938 39.4071 72.5938C39.2697 72.5938 38.8498 72.5938 38.8498 71.9621C38.8498 71.7429 38.9464 71.2189 38.9872 71.048L39.7379 67.5811H41.4212C41.6813 67.5811 41.9414 67.399 41.9414 66.9865L41.7407 66.4812H40.2618V66.4886Z" fill="#BA9765"/>
        <path d="M58.5292 64.8944H58.0684L58.0387 65.1248C57.9049 66.1244 57.5779 66.2284 56.857 66.2284C56.4557 66.2284 56.2104 66.2099 55.575 66.0909C55.1105 65.9943 54.9173 65.9758 54.7352 65.9758C54.4194 65.9758 53.8137 66.0538 53.3083 66.5852C53.2043 66.6966 53.1114 66.8193 53.0259 66.953C53.011 66.2136 52.2641 65.7379 51.1122 65.7379C50.7221 65.7379 50.2947 65.8011 49.86 65.9163C49.8414 65.8494 49.8414 65.7937 49.8414 65.7082C49.8414 64.638 51.049 63.5047 52.1898 63.5047C52.502 63.5047 52.6915 63.6273 52.5986 63.9729C52.5577 64.0844 52.4945 64.2516 52.4945 64.482C52.4945 65.1954 52.9739 65.7565 53.5833 65.7565C54.2782 65.7565 54.7835 65.1991 54.7835 64.4299C54.7835 63.3486 53.7617 62.4642 52.5057 62.4642C50.4879 62.4642 48.9087 63.8986 48.9087 65.7305C48.9087 65.9163 48.9273 66.0872 48.9644 66.2433C48.7229 66.3585 48.5928 66.4328 48.4702 66.5108C47.2365 67.2763 46.4042 68.7478 46.4042 70.1747C46.4042 72.4377 48.1172 73.7866 50.9859 73.7866C54.267 73.7866 56.6489 71.806 56.6489 69.0785C56.6489 68.889 56.6229 68.6735 56.5709 68.3056C58.1278 67.9786 58.7707 67.2131 58.7707 65.7119C58.7707 65.5373 58.7484 65.3589 58.7149 65.1211L58.5292 64.8981V64.8944ZM53.2451 69.6731L53.2637 69.4278C53.3529 68.2462 53.6539 68.0455 54.2967 68.0455C55.1886 68.0455 55.6047 68.4357 55.6047 69.2792C55.6047 71.3192 53.7171 72.8019 51.1159 72.8019C49.5218 72.8019 48.5297 71.9286 48.5297 70.524C48.5297 69.7548 48.682 69.0674 49.0127 68.3539C49.2431 67.8932 49.3918 67.7185 49.6184 67.2577C50.3133 67.7928 50.8558 68.0084 51.5024 68.0084C52.0969 68.0084 52.4871 67.8597 52.7249 67.6479C52.58 68.1384 52.5205 68.7292 52.5503 69.4204L52.7472 69.6731H53.2489H53.2451Z" fill="#BA9765"/>
        <path d="M69.2235 62.2822C64.3185 62.2822 62.5386 66.3585 62.5386 69.0971C62.5386 71.8357 64.6232 73.7903 67.726 73.7903C72.4526 73.7903 74.0467 69.1863 74.0467 67.0868C74.0467 63.7722 71.6239 62.2859 69.2235 62.2859M64.8238 69.5319C64.8238 65.9126 66.6744 63.2855 69.2198 63.2855C70.9699 63.2855 71.754 64.8053 71.754 66.3102C71.754 68.3354 70.6801 72.7759 67.4844 72.7759C65.868 72.7759 64.8238 71.5013 64.8238 69.5282" fill="#BA9765"/>
        <path d="M81.1032 67.4287C81.1032 66.7672 80.6759 66.2842 80.0851 66.2842C79.327 66.2842 78.6544 66.771 78.0079 67.804C77.9001 66.8564 77.4133 66.2842 76.685 66.2842C75.2544 66.2842 74.3514 68.4282 74.3514 68.9633L74.5001 69.3572H74.7676L75.1355 69.1194L75.1912 68.9262C75.3622 68.3205 75.9233 67.6219 76.1611 67.6219C76.2874 67.6219 76.3506 67.7482 76.3506 67.9972C76.3506 68.5583 76.2168 69.268 76.1016 69.7028L75.1801 73.2849L75.4365 73.6974H76.6739C77.012 73.6974 77.1867 73.545 77.2424 73.2143L77.7552 70.7433C78.1677 68.7627 78.6284 68.3577 79.197 68.3577C79.2639 68.3577 79.4236 68.3762 79.5871 68.406L80.0776 68.4654C80.7056 68.4654 81.1107 68.0567 81.1107 67.4287" fill="#BA9765"/>
        <path d="M88.9697 67.1203C88.9697 66.6075 88.6947 66.2507 88.3009 66.2507C88.0407 66.2507 87.8289 66.4142 87.554 66.6855C87.2009 67.0013 87.108 67.0645 87.1489 67.1871C86.4355 66.496 85.9227 66.2693 85.0234 66.2693C83.0391 66.2693 81.3001 67.7966 81.3001 69.5356C81.3001 70.1636 81.4747 70.6021 81.9355 71.0665C81.3224 71.6239 81.0994 72.0996 81.0994 72.7944C81.0994 73.337 81.2146 73.7197 81.5862 74.37C80.5792 75.0017 80.2002 75.5851 80.2002 76.4732C80.2002 77.941 81.7274 79.0074 83.8306 79.0074C86.4243 79.0074 88.3789 77.5173 88.3789 75.5405C88.3789 73.3295 86.5544 73.0248 84.3286 73.0248C82.2774 73.0248 82.125 72.7684 82.125 72.3783C82.125 72.0735 82.3628 71.7726 82.6267 71.5162C83.2249 71.6945 83.5408 71.7465 83.9272 71.7465C85.8669 71.7465 87.5057 70.2342 87.5057 68.4431C87.5057 68.3131 87.4908 68.1607 87.2678 68.1347L87.8772 68.1756C88.613 68.1756 88.966 67.83 88.966 67.124M84.9343 67.1091C85.2129 67.1091 85.5808 67.1946 85.5808 67.9229C85.5808 68.4877 85.0309 70.877 83.9272 70.877C83.3141 70.877 83.2249 70.3196 83.2249 69.9889C83.2249 69.4799 83.6708 67.1091 84.9343 67.1091ZM83.2324 74.9942C85.8484 74.9942 87.082 75.1131 87.082 76.1908C87.082 77.1792 85.566 78.045 83.8343 78.045C82.4632 78.045 81.5751 77.3092 81.5751 76.1722C81.5751 75.2655 81.9615 74.9905 83.2287 74.9905" fill="#BA9765"/>
        <path d="M96.6579 70.8213C96.3643 70.8213 96.264 71.0851 96.1711 71.3304C95.9742 71.8952 95.6695 72.2816 95.3685 72.2816C95.283 72.2816 95.1976 72.2519 95.1158 72.185C95.1158 72.0252 95.1938 71.5533 95.309 71.0443L95.9147 68.6809C95.9444 68.5509 96.0448 68.2202 96.1451 67.8672C96.4164 66.9605 96.4684 66.7561 96.4684 66.6632L96.3383 66.2879H96.0745C95.9519 66.2879 95.6323 66.3325 95.3276 66.3808C95.0786 66.418 94.8371 66.4551 94.7405 66.4551C94.4358 66.4737 94.302 66.5889 94.224 66.8379C93.8784 66.4551 93.4845 66.2916 92.9643 66.2916C90.902 66.2916 88.8025 68.7441 88.8025 71.1483C88.8025 72.7721 89.7909 73.8646 91.2624 73.8646C92.2286 73.8646 92.7228 73.5079 93.2876 72.7573C93.4362 73.2775 93.7744 73.8646 94.6067 73.8646C96.0373 73.8646 97.0481 71.6611 97.0481 71.2226L96.918 70.8287H96.6505L96.6579 70.8213ZM93.9602 68.1867C93.9156 68.9002 93.2876 72.761 91.5931 72.761C91.3776 72.761 90.7979 72.761 90.7979 71.5831C90.7979 70.5538 91.8718 67.2578 93.1278 67.2578H93.165C93.6109 67.2578 93.9602 67.6702 93.9602 68.1867Z" fill="#BA9765"/>
        <path d="M105.294 71.2077C105.067 71.2077 104.944 71.4195 104.747 71.7503C104.368 72.4674 104.149 72.5603 103.997 72.5603C103.87 72.5603 103.863 72.2593 103.863 72.1702C103.863 71.9918 103.908 71.6239 104.127 70.8845C104.58 69.2346 104.669 68.6921 104.669 68.3093C104.669 67.1686 103.989 66.2693 103.12 66.2693C102.406 66.2693 101.682 66.7672 100.645 67.9749C100.508 67.0199 100.195 66.2507 99.3334 66.2507C98.1443 66.2507 97.0741 68.0232 97.0741 68.8593L97.1856 69.2532H97.4531C97.7801 69.2532 97.8842 68.9485 97.9956 68.6401C98.2892 67.8672 98.6311 67.5141 98.7871 67.4993C98.7871 67.4993 98.854 67.581 98.854 67.8894C98.854 68.1719 98.776 68.7404 98.6274 69.2829L97.6761 72.735C97.6575 72.8093 97.5757 73.114 97.5757 73.2478C97.5757 73.3221 97.6092 73.6974 98.226 73.6974H98.8131C99.1996 73.6974 99.3928 73.6379 99.5266 73.2626L100.508 69.5467L100.764 69.2012C101.908 67.6665 102.466 67.4993 102.655 67.4993C102.715 67.4993 102.849 67.4993 102.849 67.8374C102.849 68.1458 102.756 68.6475 102.566 69.3758C102.12 71.0145 102.046 71.5087 102.046 71.9323C102.046 73.0657 102.626 73.8274 103.48 73.8274C104.944 73.8274 105.725 71.858 105.725 71.6202L105.576 71.2077H105.309H105.294Z" fill="#BA9765"/>
        <path d="M110.24 70.9848H109.972C109.719 70.9848 109.578 71.2412 109.422 71.5793C109.251 71.9472 108.998 72.3783 108.638 72.3783C108.571 72.3783 108.5 72.3634 108.43 72.3299C108.43 72.2296 108.463 72.0513 108.512 71.8692L109.132 69.569C109.292 69.0339 109.381 68.4951 109.381 68.0492C109.381 67.0757 108.72 66.2842 107.91 66.2842C106.505 66.2842 105.795 68.2387 105.795 68.6363L105.907 69.0302H106.174C106.472 69.0302 106.579 68.7775 106.717 68.4617C106.94 67.9006 107.178 67.607 107.393 67.607C107.464 67.607 107.531 67.6405 107.594 67.7036C107.594 67.8337 107.557 67.9898 107.512 68.1644L106.594 71.6128C106.527 71.9063 106.494 72.1553 106.494 72.3857C106.494 73.2849 107.003 73.8423 107.82 73.8423C109.574 73.8423 110.355 71.6945 110.355 71.401L110.243 70.9885L110.24 70.9848Z" fill="#BA9765"/>
        <path d="M108.244 64.7049C108.244 65.3032 108.671 65.738 109.262 65.738C109.853 65.738 110.388 65.1769 110.388 64.5563C110.388 63.9357 109.942 63.5047 109.37 63.5047C108.772 63.5047 108.244 64.0658 108.244 64.7049Z" fill="#BA9765"/>
        <path d="M118.125 66.6818L117.961 66.2693H117.694C117.367 66.2693 117.229 66.5443 117.125 66.7487C116.865 67.3024 116.523 67.5848 116.103 67.5848C115.683 67.5848 115.416 67.4956 114.498 66.9642C113.68 66.4849 113.231 66.2693 112.737 66.2693C111.752 66.2693 110.953 67.1835 110.953 68.3094C110.953 69.1232 111.354 69.6731 111.949 69.6731C112.32 69.6731 112.562 69.4167 112.562 69.0228C112.562 68.6289 112.354 68.4617 111.882 68.2871C111.904 68.2425 112.105 68.1162 112.514 68.1162C112.789 68.1162 113.078 68.1756 113.554 68.2759C114.368 68.4506 114.799 68.5063 115.197 68.5249L111.02 72.0996C110.57 72.4972 110.273 72.8539 110.273 73.285C110.273 73.6305 110.526 73.8981 110.849 73.8981C111.332 73.8981 111.425 73.4522 111.473 73.2255C111.525 73.0211 111.6 72.9282 111.893 72.9282C112.153 72.9282 112.499 73.0174 113.298 73.3147C114.368 73.7234 114.903 73.8609 115.405 73.8609C116.761 73.8609 118.047 72.4266 118.047 70.9068L117.939 70.5129H117.671C117.344 70.5129 117.263 70.7916 117.173 71.0963C116.928 72.081 116.475 72.1962 116.151 72.1962C115.858 72.1962 115.55 72.1033 114.379 71.6277C113.959 71.4679 113.68 71.3713 113.391 71.3081L116.036 69.0526C117.118 68.1942 118.117 67.3098 118.117 66.6818" fill="#BA9765"/>
        <path d="M126.467 70.8213H126.199C125.906 70.8213 125.805 71.0814 125.709 71.3304C125.512 71.8952 125.211 72.2816 124.91 72.2816C124.824 72.2816 124.739 72.2482 124.654 72.185C124.654 72.0252 124.732 71.5533 124.847 71.0443L125.452 68.6809C125.482 68.5509 125.582 68.2202 125.683 67.8672C125.954 66.9605 126.006 66.7598 126.006 66.6632L125.876 66.2879H125.612C125.493 66.2879 125.17 66.3325 124.862 66.3808C124.613 66.418 124.379 66.4551 124.278 66.4551C123.97 66.4737 123.836 66.5889 123.758 66.8379C123.412 66.4551 123.019 66.2916 122.502 66.2916C120.44 66.2916 118.34 68.7441 118.34 71.1483C118.34 72.7721 119.329 73.8646 120.8 73.8646C121.766 73.8646 122.264 73.5079 122.829 72.7573C122.978 73.2775 123.316 73.8646 124.148 73.8646C125.579 73.8646 126.59 71.6611 126.59 71.2226L126.463 70.8287L126.467 70.8213ZM121.135 72.761C120.919 72.761 120.339 72.761 120.339 71.5831C120.339 70.5538 121.413 67.2578 122.669 67.2578H122.706C123.152 67.2578 123.502 67.6702 123.502 68.1867C123.457 68.9002 122.829 72.761 121.135 72.761Z" fill="#BA9765"/>
        <path d="M130.863 66.4142C129.339 66.4142 128.146 67.3767 128.146 68.5992C128.146 69.3201 128.514 69.8106 129.399 70.7098C130.201 71.4976 130.361 71.8172 130.361 72.1107C130.361 72.5603 129.986 72.8502 129.402 72.8502C128.708 72.8502 128.63 72.6198 128.485 72.2296C128.399 71.9621 128.135 71.1483 127.374 71.1483C126.928 71.1483 126.578 71.531 126.578 72.0178C126.578 72.9914 127.756 73.7829 129.206 73.7829C130.814 73.7829 132.122 72.6792 132.122 71.3229C132.122 70.7061 131.773 70.145 130.777 69.1714C130.112 68.5397 129.856 68.1942 129.856 67.9378C129.856 67.5662 130.19 67.3061 130.666 67.3061C131.141 67.3061 131.186 67.4918 131.186 67.9192C131.186 68.5174 131.513 68.9188 132.004 68.9188C132.494 68.9188 132.855 68.5472 132.855 67.9935C132.855 67.1351 131.944 66.4105 130.87 66.4105" fill="#BA9765"/>
        <path d="M141.178 66.47H140.483C140.056 66.47 139.915 66.6781 139.826 67.0162L138.856 70.7396C138.046 71.9361 137.321 72.5418 136.7 72.5418C136.626 72.5418 136.455 72.5418 136.455 72.185C136.455 72.107 136.474 71.8989 136.611 71.3527L137.05 69.6174C137.198 69.0414 137.258 68.6661 137.258 68.3242C137.258 67.0348 136.66 66.2656 135.656 66.2656C134.259 66.2656 133.523 68.2165 133.523 68.8928L133.668 69.2867H133.936C134.3 69.2867 134.404 68.9374 134.501 68.6029C134.705 67.9006 134.98 67.5848 135.158 67.5848C135.314 67.5848 135.37 67.8152 135.37 68.0121C135.37 68.38 135.251 69.008 135.017 69.8775L134.798 70.6281C134.564 71.4233 134.438 72.0438 134.438 72.4229C134.438 73.285 134.995 73.8238 135.894 73.8238C136.652 73.8238 137.403 73.4893 138.324 72.6681L137.797 74.7119C137.406 76.1462 136.745 77.0009 136.02 77.0009C135.79 77.0009 135.679 76.9786 135.378 76.3914C135.092 75.8638 134.876 75.6111 134.43 75.6111C133.951 75.6111 133.341 76.109 133.341 76.6627C133.341 77.4096 134.252 77.9707 135.456 77.9707C136.567 77.9707 137.83 77.4765 138.677 76.7073C139.149 76.254 139.547 75.5108 139.774 74.6636L141.776 66.9679C141.776 66.849 141.732 66.4626 141.182 66.4626" fill="#BA9765"/>
        <path d="M146.373 66.2693C143.958 66.2693 141.884 69.0191 141.884 71.2709C141.884 72.8205 142.865 73.8609 144.326 73.8609C146.715 73.8609 148.889 71.5348 148.889 68.9857C148.889 67.3098 147.922 66.2693 146.373 66.2693ZM146.117 67.1835C146.648 67.1835 146.837 67.8189 146.837 68.4171C146.837 69.3238 146.325 72.8725 144.872 72.8725C144.192 72.8725 143.95 72.1702 143.95 71.5125C143.95 70.9439 144.355 67.1872 146.117 67.1872" fill="#BA9765"/>
        <path d="M157.851 71.2077H157.584C157.357 71.2077 157.234 71.4196 157.038 71.7503C156.659 72.4749 156.428 72.5603 156.287 72.5603C156.161 72.5603 156.153 72.2593 156.153 72.1702C156.153 71.9101 156.242 71.479 156.417 70.8882C156.87 69.2458 156.959 68.6995 156.959 68.3131C156.959 67.1723 156.279 66.273 155.414 66.273C154.697 66.273 153.972 66.771 152.939 67.9786C152.798 67.0236 152.486 66.2545 151.627 66.2545C150.438 66.2545 149.368 68.0269 149.368 68.863L149.476 69.2569H149.743C150.07 69.2569 150.174 68.9522 150.286 68.6438C150.579 67.8709 150.921 67.5179 151.074 67.503C151.074 67.503 151.14 67.5847 151.14 67.8932C151.14 68.1756 151.062 68.7441 150.914 69.2866L149.962 72.7387C149.944 72.813 149.862 73.1177 149.862 73.2515C149.862 73.3258 149.896 73.7011 150.512 73.7011H151.1C151.486 73.7011 151.675 73.6417 151.813 73.2664L152.798 69.5505L153.054 69.2049C154.195 67.6702 154.756 67.503 154.945 67.503C154.998 67.503 155.135 67.503 155.135 67.8411C155.135 68.1496 155.042 68.6512 154.853 69.3795C154.407 71.0108 154.332 71.505 154.332 71.9361C154.332 73.0694 154.912 73.8312 155.767 73.8312C157.231 73.8312 158.007 71.8617 158.007 71.6239L157.862 71.2115L157.851 71.2077Z" fill="#BA9765"/>
        <path d="M65.0319 32.3617C64.9724 31.8378 64.6937 31.4513 64.2255 31.2433C63.8093 31.0612 63.3151 30.9683 62.754 30.9683C61.7024 30.9683 60.2495 31.3659 58.3061 32.1797C56.8569 32.7891 55.2554 33.4505 53.5089 34.1565C55.4263 32.555 57.3065 30.8531 59.1013 29.0732C61.3123 26.8845 63.3003 24.629 65.0096 22.366C66.7189 20.103 68.1049 17.7768 69.1194 15.4544C70.1412 13.1208 70.6577 10.8021 70.6577 8.56142C70.6577 7.1308 70.3679 5.84881 69.7957 4.75634C69.2271 3.66758 68.4468 2.7609 67.4769 2.06603C66.522 1.37858 65.4221 0.854642 64.2218 0.509064C63.0216 0.167201 61.747 -0.00744629 60.4316 -0.00744629C58.2504 -0.00744629 55.731 0.445893 52.9515 1.34142C50.1757 2.23324 47.3182 3.45577 44.4644 4.96814C41.6106 6.48051 38.7716 8.27157 36.0219 10.2967C33.2795 12.3145 30.801 14.5143 28.657 16.8256C26.5129 19.1369 24.7627 21.5745 23.4547 24.0679C22.1393 26.5761 21.4741 29.0806 21.4741 31.5182C21.4741 34.6545 22.4365 37.2407 24.3279 39.2101C26.223 41.1796 28.8725 42.1791 32.2094 42.1791C33.9112 42.1791 35.7395 41.945 37.6494 41.4843C38.8014 41.2093 39.9719 40.886 41.1535 40.533C39.028 41.737 36.9583 42.796 34.9888 43.6915C32.3766 44.8806 30.0616 45.7501 28.0847 46.2815C27.676 46.419 27.4716 46.8203 27.4716 47.4706C27.4716 47.7641 27.5608 48.0466 27.7317 48.303C27.9286 48.5965 28.2705 48.7451 28.7461 48.7451C29.4596 48.7451 30.5075 48.4664 31.9492 47.8979C33.339 47.348 34.974 46.5639 36.8133 45.5718C38.6304 44.5945 40.6482 43.4017 42.822 42.0268C44.9809 40.6593 47.1993 39.1098 49.3508 37.4637C52.0039 36.3563 54.3152 35.327 56.2921 34.3906C58.6926 33.2498 59.6736 33.0083 60.0786 33.0083C61.7619 33.0083 61.7619 33.6214 61.7619 33.8258C61.7619 33.8815 61.6987 34.2271 60.4613 35.5983C59.5509 36.6053 58.3358 37.891 56.8235 39.4554L51.6992 44.7617C49.7967 46.7386 47.8533 48.8455 45.8801 51.0862C43.8847 53.3491 41.5214 56.1138 41.0755 56.7826C40.6147 57.4738 40.3806 58.1204 40.3806 58.7C40.3806 59.3838 40.7448 59.681 41.0346 59.8037C41.265 59.9188 41.5474 59.9746 41.8744 59.9746C42.3463 59.9746 42.7328 59.7665 43.03 59.3577C43.2716 59.0159 43.5168 58.6517 43.7546 58.269C45.2076 56.0989 45.7315 55.3929 46.9578 53.7542L47.9499 52.4165C49.8301 49.8822 51.8999 47.6675 54.1071 45.3116L59.5918 39.4294C61.2082 37.6903 62.5125 36.2337 63.5009 35.0521C64.5525 33.7924 65.043 32.9489 65.043 32.3617M26.6021 34.1194C26.093 33.0343 25.8329 31.7486 25.8329 30.2994C25.8329 27.9473 26.3717 25.5914 27.4307 23.2987C28.5009 20.9948 29.9204 18.8061 31.652 16.7884C33.3873 14.767 35.4013 12.8756 37.6383 11.1588C39.8827 9.44208 42.2014 7.93343 44.535 6.67002C46.8686 5.41033 49.1836 4.41819 51.4168 3.73075C53.6427 3.04331 55.6344 2.69773 57.3325 2.69773C63.8093 2.69773 66.9567 5.56269 66.9567 11.4561C66.9567 13.5704 66.4179 15.7703 65.3589 17.9812C64.2961 20.207 62.8469 22.4254 61.0633 24.5695C59.2797 26.7099 57.1988 28.8279 54.8838 30.8568C52.5725 32.882 50.1163 34.7845 47.6415 36.4752C45.6349 37.1887 43.5911 37.8092 41.566 38.3072C39.5483 38.8051 37.6123 39.0578 35.8175 39.0578C34.4092 39.0578 33.0863 38.8794 31.8861 38.5264C30.697 38.1734 29.6379 37.6235 28.7313 36.8803C27.8283 36.1408 27.1111 35.2118 26.6021 34.1194Z" fill="#BA9765"/>
        <path d="M71.9621 35.9067C72.3968 35.9067 72.8242 35.7693 73.2292 35.498C73.6082 35.249 73.9538 34.9257 74.2659 34.543C74.5669 34.1677 74.8196 33.759 75.0203 33.3353C75.2284 32.8931 75.3324 32.4807 75.3324 32.1017C75.3324 31.1876 74.775 30.6822 73.7643 30.6822C73.3778 30.6822 72.9691 30.816 72.5418 31.0835C72.133 31.3362 71.7689 31.6595 71.4642 32.0459C71.1632 32.4175 70.9105 32.8263 70.7061 33.2536C70.498 33.6995 70.3903 34.112 70.3903 34.4873C70.3903 35.4051 70.9476 35.9105 71.9547 35.9105" fill="#BA9765"/>
        <path d="M78.673 35.9067C79.1078 35.9067 79.5351 35.7693 79.9402 35.498C80.3229 35.2453 80.6685 34.922 80.9769 34.543C81.2779 34.1677 81.5306 33.759 81.7312 33.3353C81.9393 32.8931 82.0434 32.4807 82.0434 32.1017C82.0434 31.1876 81.486 30.6822 80.479 30.6822C80.0925 30.6822 79.68 30.816 79.2564 31.0835C78.8477 31.3362 78.4835 31.6595 78.1788 32.0459C77.8778 32.4175 77.6252 32.8263 77.4208 33.2536C77.2127 33.6958 77.1086 34.1082 77.1086 34.4873C77.1086 35.4051 77.666 35.9105 78.673 35.9105" fill="#BA9765"/>
        <path d="M66.0352 49.8153C67.176 49.3322 68.3019 48.7711 69.4204 48.1432C70.5351 47.5152 71.5421 46.8835 72.4377 46.2518C72.9282 45.9062 73.3518 45.6052 73.6862 45.36C73.6491 45.4306 73.6082 45.5049 73.5673 45.5903C73.2366 46.2258 73.0657 46.9355 73.0657 47.6973C73.0657 47.9128 73.1065 48.1989 73.1809 48.5445C73.2589 48.9123 73.4112 49.2728 73.6491 49.6481C73.8794 50.0085 74.1953 50.3355 74.5817 50.618C74.9868 50.9152 75.5404 51.0676 76.2205 51.0676C76.8633 51.0676 77.6176 50.9524 78.4574 50.722C79.2786 50.4953 80.1296 50.2352 80.9991 49.9379C81.8723 49.637 82.6824 49.3248 83.4367 49.0015C84.1799 48.682 84.7893 48.4256 85.2687 48.2323L86.5098 47.7344C85.7554 50.4656 85.3356 53.0444 85.265 55.4189C85.265 55.8574 85.3913 56.2587 85.6365 56.6154C85.9041 57.0019 86.3537 57.1988 86.9743 57.1988C87.2381 57.1988 87.461 57.1691 87.6023 57.1208C88.1708 57.0056 88.5387 56.7715 88.6947 56.4259C88.8285 56.1249 88.8991 55.7831 88.8991 55.4152V54.4788C88.8991 51.9668 89.3339 49.1242 90.0808 46.1812C91.8124 45.0255 94.0196 43.4686 96.6951 41.5177C99.3631 39.5743 102.206 37.3596 105.152 34.9369C108.073 32.5401 111.064 29.965 114.041 27.2784C116.999 24.6067 119.7 21.9424 122.075 19.3561C124.453 16.7624 126.415 14.2765 127.912 11.9577C129.425 9.61673 130.194 7.55069 130.194 5.81908C130.194 3.99457 129.882 2.81663 129.239 2.23324C128.615 1.65727 127.63 1.36743 126.314 1.36743C123.825 1.36743 121.056 2.26668 118.095 4.03916C115.156 5.79678 112.149 8.16753 109.166 11.0808C106.178 13.9978 103.228 17.3718 100.404 21.11C97.5683 24.8593 95.0229 28.7796 92.838 32.7668C90.653 36.7502 88.8508 40.7448 87.4759 44.6428C87.305 45.1296 87.1452 45.6089 87.1452 45.9173L85.1535 46.7163C84.8599 46.8129 84.4363 46.9727 83.8789 47.1919C83.329 47.4074 82.7307 47.6229 82.0841 47.8385C81.4413 48.054 80.7947 48.2472 80.1519 48.4219C79.5313 48.5891 78.9628 48.6708 78.45 48.6708C78.0375 48.6708 77.7365 48.5816 77.547 48.407C77.3352 48.2138 77.1792 47.9871 77.0714 47.7344C76.9599 47.4669 76.8968 47.2179 76.8745 46.9801C76.8522 46.7274 76.8373 46.5305 76.8373 46.393C76.8373 45.6126 77.0119 44.8249 77.3575 44.0445C77.796 43.0524 77.9929 42.6994 78.1007 42.5582C78.2716 42.2758 78.3534 42.0417 78.3534 41.8447C78.3534 41.3579 78.1973 41.0235 77.8926 40.8563C77.6994 40.7485 77.4727 40.6854 77.1383 40.6854C77.0268 40.6854 76.9005 40.6928 76.7593 40.7076C75.2246 42.0528 73.7345 43.2753 72.2965 44.379C71.0554 45.3339 69.7771 46.1923 68.5025 46.9206C67.2503 47.6378 66.1801 48.0057 65.3143 48.0057C65.0096 48.0057 64.7495 47.8608 64.5117 47.5635C64.2627 47.2476 64.1401 46.8909 64.1401 46.4673C64.1401 45.9433 64.2961 45.4343 64.6046 44.9512C64.9353 44.4347 65.2957 43.9516 65.697 43.5057C66.1058 43.0487 66.4774 42.6436 66.8118 42.2832C67.2057 41.8596 67.3878 41.54 67.3878 41.2725L67.3134 40.9455L67.2354 40.8674C67.0422 40.6742 66.7821 40.5739 66.4699 40.5739L65.9609 40.6891C65.6636 40.886 65.214 41.2836 64.6194 41.8782C64.0397 42.4616 63.4452 43.0895 62.8395 43.7658C62.2301 44.4496 61.695 45.1667 61.2565 45.8988C60.7995 46.6605 60.5691 47.3591 60.5691 47.9834C60.5691 48.6077 60.7809 49.165 61.2045 49.7076C61.6393 50.2724 62.1706 50.5585 62.7875 50.5585C63.7796 50.5585 64.8721 50.3058 66.0315 49.8153M124.587 3.92769C125.408 3.92769 125.976 4.14321 126.285 4.57425C126.612 5.03131 126.775 5.55153 126.775 6.11635C126.775 7.5544 126.121 9.36405 124.828 11.5007C123.516 13.6671 121.777 16.0378 119.656 18.5423C117.512 21.0691 115.078 23.6591 112.417 26.2491C109.745 28.8465 107.018 31.3584 104.305 33.7106C101.611 36.0479 98.9803 38.2068 96.487 40.1243C94.2834 41.8187 92.366 43.2047 90.7756 44.2526C91.6563 41.5474 92.7896 38.7159 94.146 35.825C95.6174 32.6813 97.3268 29.5451 99.2182 26.5055C101.11 23.4659 103.168 20.5452 105.335 17.8326C107.512 15.1088 109.734 12.6898 111.949 10.6423C114.163 8.59114 116.382 6.94128 118.541 5.73361C120.681 4.53338 122.714 3.92769 124.583 3.92769" fill="#BA9765"/>
        <path d="M126.095 36.8357C124.813 37.3188 123.52 37.8761 122.212 38.5041C120.912 39.1321 119.76 39.7675 118.745 40.4327C118.645 40.533 118.481 40.7188 118.258 40.9938C118.002 41.3059 117.872 41.6701 117.872 42.064C117.872 42.3612 117.976 42.6474 118.18 42.9112C118.396 43.1862 118.794 43.372 119.396 43.4797C120.269 43.6246 121.328 43.7807 121.365 43.7881C121.291 43.8439 121.187 43.9182 121.057 44.0111C120.644 44.3046 120.18 44.6688 119.667 45.111C119.384 45.3525 119.113 45.6201 118.946 45.8393C117.753 46.3372 116.542 46.8017 115.319 47.2253C114.126 47.6118 112.837 47.9797 111.455 48.3401C110.095 48.6931 108.79 48.8752 107.575 48.8752C106.163 48.8752 105.074 48.5668 104.335 47.9537C103.603 47.348 103.246 46.523 103.246 45.438C103.246 44.6242 103.555 43.7584 104.164 42.8629C104.792 41.9413 105.572 41.1053 106.479 40.3769C107.389 39.6412 108.348 39.0169 109.337 38.519C110.295 38.0322 111.124 37.7832 111.797 37.7832C112.19 37.7832 112.391 37.865 112.391 38.0211C112.391 38.4298 112.112 38.9277 111.562 39.4963C110.979 40.102 110.5 40.5256 110.087 40.7931C109.749 41.135 109.574 41.462 109.574 41.7741C109.574 42.4876 110.054 42.5433 110.202 42.5433C110.574 42.5433 110.916 42.4913 111.224 42.3872L111.41 42.0677L111.566 42.2906C112.202 41.9005 112.789 41.4843 113.339 41.0347C113.785 40.6371 114.193 40.1911 114.565 39.6932C114.959 39.1693 115.163 38.6305 115.163 38.0917C115.163 37.1627 114.844 36.5496 114.238 36.2746C113.955 36.1037 113.617 36.0182 113.235 36.0182C112.001 36.0182 110.604 36.3526 109.084 37.0141C107.583 37.6681 106.141 38.519 104.807 39.5371C103.469 40.559 102.321 41.7295 101.396 43.0227C100.452 44.3381 99.9725 45.6647 99.9725 46.9652C99.9725 48.3921 100.467 49.5032 101.444 50.2798C102.403 51.0379 103.48 51.4206 104.64 51.4206C105.799 51.4206 107.278 51.1828 109.002 50.7146C110.715 50.2501 112.369 49.7596 113.963 49.2431C115.156 48.8455 116.371 48.407 117.604 47.9314C117.545 48.184 117.512 48.4404 117.512 48.7006C117.512 49.5106 117.853 50.1758 118.519 50.6811C119.161 51.1716 120.009 51.4206 121.027 51.4206C122.197 51.4206 123.665 51.1828 125.389 50.7146C127.102 50.2501 128.756 49.7596 130.35 49.2431C132.23 48.6151 134.163 47.8905 136.188 47.047C136.407 46.9021 136.526 46.6754 136.526 46.393C136.526 46.2481 136.478 46.0994 136.377 45.9285L136.006 45.5532L135.794 45.6424C134.452 46.2146 133.085 46.746 131.703 47.2216C130.506 47.6081 129.209 47.976 127.819 48.3364C126.448 48.6894 125.133 48.8715 123.914 48.8715C123.279 48.8715 122.599 48.7191 121.889 48.4219C121.246 48.1469 120.934 47.7418 120.934 47.1733C120.934 46.2964 121.354 45.6089 122.216 45.0738C123.126 44.509 124.081 44.104 125.047 43.8699C125.679 43.7584 126.051 43.5392 126.184 43.201C126.292 42.9298 126.348 42.6511 126.348 42.3761C126.348 41.9785 126.285 41.6924 126.158 41.5029C126.01 41.2799 125.661 41.1536 124.999 41.0941H124.312C124.003 41.0941 123.687 41.083 123.357 41.0607L121.978 40.9641C121.725 40.8823 121.725 40.7671 121.896 40.4921C122.038 40.3955 122.391 40.2097 122.948 39.9273C123.524 39.6375 124.17 39.3253 124.891 38.9909C125.605 38.6565 126.322 38.3592 127.035 38.0954C127.745 37.839 128.291 37.6569 128.656 37.5677C128.89 37.5231 129.101 37.486 129.284 37.4637C129.41 37.4488 129.659 37.4414 129.685 37.4414C129.414 37.8204 129.276 38.1883 129.276 38.5339C129.276 38.8794 129.447 39.147 129.755 39.2808C130.004 39.3922 130.265 39.448 130.551 39.448C130.87 39.448 131.242 39.3699 131.654 39.2139C132.056 39.0615 132.435 38.872 132.788 38.649C133.152 38.4149 133.453 38.166 133.705 37.8836C133.992 37.5714 134.137 37.2556 134.137 36.9472C134.137 36.3266 133.876 35.8584 133.382 35.5909C132.933 35.3568 132.442 35.2379 131.922 35.2379C131.461 35.2379 130.707 35.3828 129.618 35.68C128.552 35.9699 127.374 36.3563 126.092 36.8431" fill="#BA9765"/>
        <path d="M141.275 42.6436V42.6139C141.587 42.521 141.806 42.3018 141.806 42.0194C141.806 41.7704 141.698 41.566 141.557 41.4582C141.368 41.3468 141.152 41.2687 140.665 41.2687C140.242 41.2687 139.915 41.2985 139.681 41.3468V43.9107H140.275V42.8777H140.558C140.885 42.8777 141.041 43.0041 141.089 43.2828C141.167 43.58 141.215 43.8141 141.293 43.907H141.936C141.873 43.8141 141.825 43.6581 141.747 43.2679C141.669 42.9223 141.527 42.7365 141.279 42.6436M140.572 42.4541H140.29V41.7184C140.353 41.7035 140.461 41.6849 140.617 41.6849C140.992 41.6849 141.163 41.841 141.163 42.0751C141.163 42.3389 140.896 42.4504 140.569 42.4504" fill="#BA9765"/>
        <path d="M140.68 40.0016C139.212 40.0016 138.038 41.1424 138.038 42.5656C138.038 43.9888 139.209 45.1593 140.68 45.1593C142.152 45.1593 143.307 44.0185 143.307 42.5656C143.307 41.1127 142.167 40.0016 140.68 40.0016ZM140.695 44.6131C139.539 44.6131 138.696 43.7064 138.696 42.5656C138.696 41.4248 139.539 40.5182 140.68 40.5182C141.821 40.5182 142.65 41.4397 142.65 42.5805C142.65 43.7213 141.821 44.6131 140.695 44.6131Z" fill="#BA9765"/>
    </g>
    <defs>
        <clipPath id="clip0_2013_179">
            <rect width="158" height="79" fill="white"/>
        </clipPath>
    </defs>
</svg>
